<svg xmlns="http://www.w3.org/2000/svg" width="830" height="208" viewBox="0 0 830 208" role="img" aria-label="语言构成"><rect x="0.5" y="0.5" width="829" height="207" rx="20" fill="#FFFFFF" fill-opacity="0.045" stroke="rgba(255,255,255,0.09)" stroke-width="1"/><line x1="20" y1="2" x2="810" y2="2" stroke="rgba(255,255,255,0.12)" stroke-width="1"/><text x="44" y="38" fill="#76819A" font-family="ui-monospace,'Cascadia Code','SF Mono',Consolas,'Courier New',monospace" font-size="10" letter-spacing="2">LANGUAGES · BY REPO</text><rect x="44" y="60" width="296.33663366336634" height="12" fill="#3178c6" rx="4"/><rect x="342.33663366336634" y="60" width="137.32673267326732" height="12" fill="#3572A5" rx="4"/><rect x="481.66336633663366" y="60" width="130.0990099009901" height="12" fill="#e34c26" rx="4"/><rect x="613.7623762376238" y="60" width="50.5940594059406" height="12" fill="#41b883" rx="4"/><rect x="666.3564356435644" y="60" width="43.366336633663366" height="12" fill="#f1e05a" rx="4"/><rect x="711.7227722772277" y="60" width="36.13861386138614" height="12" fill="#dea584" rx="4"/><rect x="749.8613861386139" y="60" width="36.13861386138614" height="12" fill="#8b949e" rx="4"/><circle cx="48.5" cy="101.5" r="4.5" fill="#3178c6"/><text x="61" y="106" fill="#BFC8DA" font-family="-apple-system,'Segoe UI','PingFang SC','Hiragino Sans GB','Microsoft YaHei',sans-serif" font-size="12.5">TypeScript</text><line x1="146" y1="102" x2="192" y2="102" stroke="rgba(255,255,255,0.10)" stroke-width="1"/><text x="234" y="106" fill="#76819A" font-family="ui-monospace,'Cascadia Code','SF Mono',Consolas,'Courier New',monospace" font-size="11" text-anchor="end">41%</text><circle cx="429.5" cy="101.5" r="4.5" fill="#3572A5"/><text x="442" y="106" fill="#BFC8DA" font-family="-apple-system,'Segoe UI','PingFang SC','Hiragino Sans GB','Microsoft YaHei',sans-serif" font-size="12.5">Python</text><line x1="497" y1="102" x2="573" y2="102" stroke="rgba(255,255,255,0.10)" stroke-width="1"/><text x="615" y="106" fill="#76819A" font-family="ui-monospace,'Cascadia Code','SF Mono',Consolas,'Courier New',monospace" font-size="11" text-anchor="end">19%</text><circle cx="48.5" cy="127.5" r="4.5" fill="#e34c26"/><text x="61" y="132" fill="#BFC8DA" font-family="-apple-system,'Segoe UI','PingFang SC','Hiragino Sans GB','Microsoft YaHei',sans-serif" font-size="12.5">HTML</text><line x1="101" y1="128" x2="192" y2="128" stroke="rgba(255,255,255,0.10)" stroke-width="1"/><text x="234" y="132" fill="#76819A" font-family="ui-monospace,'Cascadia Code','SF Mono',Consolas,'Courier New',monospace" font-size="11" text-anchor="end">18%</text><circle cx="429.5" cy="127.5" r="4.5" fill="#41b883"/><text x="442" y="132" fill="#BFC8DA" font-family="-apple-system,'Segoe UI','PingFang SC','Hiragino Sans GB','Microsoft YaHei',sans-serif" font-size="12.5">Vue</text><line x1="474.5" y1="128" x2="573" y2="128" stroke="rgba(255,255,255,0.10)" stroke-width="1"/><text x="615" y="132" fill="#76819A" font-family="ui-monospace,'Cascadia Code','SF Mono',Consolas,'Courier New',monospace" font-size="11" text-anchor="end">7%</text><circle cx="48.5" cy="153.5" r="4.5" fill="#f1e05a"/><text x="61" y="158" fill="#BFC8DA" font-family="-apple-system,'Segoe UI','PingFang SC','Hiragino Sans GB','Microsoft YaHei',sans-serif" font-size="12.5">JavaScript</text><line x1="146" y1="154" x2="192" y2="154" stroke="rgba(255,255,255,0.10)" stroke-width="1"/><text x="234" y="158" fill="#76819A" font-family="ui-monospace,'Cascadia Code','SF Mono',Consolas,'Courier New',monospace" font-size="11" text-anchor="end">6%</text><circle cx="429.5" cy="153.5" r="4.5" fill="#dea584"/><text x="442" y="158" fill="#BFC8DA" font-family="-apple-system,'Segoe UI','PingFang SC','Hiragino Sans GB','Microsoft YaHei',sans-serif" font-size="12.5">Rust</text><line x1="482" y1="154" x2="573" y2="154" stroke="rgba(255,255,255,0.10)" stroke-width="1"/><text x="615" y="158" fill="#76819A" font-family="ui-monospace,'Cascadia Code','SF Mono',Consolas,'Courier New',monospace" font-size="11" text-anchor="end">5%</text><circle cx="48.5" cy="179.5" r="4.5" fill="#8b949e"/><text x="61" y="184" fill="#BFC8DA" font-family="-apple-system,'Segoe UI','PingFang SC','Hiragino Sans GB','Microsoft YaHei',sans-serif" font-size="12.5">Other</text><line x1="108.5" y1="180" x2="192" y2="180" stroke="rgba(255,255,255,0.10)" stroke-width="1"/><text x="234" y="184" fill="#76819A" font-family="ui-monospace,'Cascadia Code','SF Mono',Consolas,'Courier New',monospace" font-size="11" text-anchor="end">5%</text></svg>